<svg width="18" height="18" viewBox="0 0 18 18" fill="none" xmlns="http://www.w3.org/2000/svg">
<path d="M13.6667 17.1667C12.7384 17.1667 11.8482 16.7979 11.1918 16.1416C10.5354 15.4852 10.1667 14.5949 10.1667 13.6667C10.1667 12.7384 10.5354 11.8482 11.1918 11.1918C11.8482 10.5354 12.7384 10.1667 13.6667 10.1667C14.5949 10.1667 15.4852 10.5354 16.1416 11.1918C16.7979 11.8482 17.1667 12.7384 17.1667 13.6667C17.1667 14.5949 16.7979 15.4852 16.1416 16.1416C15.4852 16.7979 14.5949 17.1667 13.6667 17.1667ZM4.33334 17.1667C3.40509 17.1667 2.51485 16.7979 1.85847 16.1416C1.20209 15.4852 0.833344 14.5949 0.833344 13.6667C0.833344 12.7384 1.20209 11.8482 1.85847 11.1918C2.51485 10.5354 3.40509 10.1667 4.33334 10.1667C5.2616 10.1667 6.15184 10.5354 6.80822 11.1918C7.4646 11.8482 7.83334 12.7384 7.83334 13.6667C7.83334 14.5949 7.4646 15.4852 6.80822 16.1416C6.15184 16.7979 5.2616 17.1667 4.33334 17.1667ZM13.6667 7.83334C12.7384 7.83334 11.8482 7.4646 11.1918 6.80822C10.5354 6.15184 10.1667 5.2616 10.1667 4.33334C10.1667 3.40509 10.5354 2.51485 11.1918 1.85847C11.8482 1.20209 12.7384 0.833344 13.6667 0.833344C14.5949 0.833344 15.4852 1.20209 16.1416 1.85847C16.7979 2.51485 17.1667 3.40509 17.1667 4.33334C17.1667 5.2616 16.7979 6.15184 16.1416 6.80822C15.4852 7.4646 14.5949 7.83334 13.6667 7.83334ZM4.33334 7.83334C3.40509 7.83334 2.51485 7.4646 1.85847 6.80822C1.20209 6.15184 0.833344 5.2616 0.833344 4.33334C0.833344 3.40509 1.20209 2.51485 1.85847 1.85847C2.51485 1.20209 3.40509 0.833344 4.33334 0.833344C5.2616 0.833344 6.15184 1.20209 6.80822 1.85847C7.4646 2.51485 7.83334 3.40509 7.83334 4.33334C7.83334 5.2616 7.4646 6.15184 6.80822 6.80822C6.15184 7.4646 5.2616 7.83334 4.33334 7.83334Z" fill="black"/>
</svg>
